<?xml version="1.0" encoding="UTF-8"?>
<svg id="Layer_1" xmlns="http://www.w3.org/2000/svg" version="1.1" viewBox="0 0 288 288">
  <!-- Generator: Adobe Illustrator 29.6.0, SVG Export Plug-In . SVG Version: 2.1.1 Build 207)  -->
  <defs>
    <style>
      .st0 {
        fill: #fff;
      }

      .st1 {
        fill: #636466;
      }
    </style>
  </defs>
  <path class="st1" d="M144,288c79.53,0,144-64.47,144-144S223.53,0,144,0,0,64.47,0,144s64.47,144,144,144"/>
  <path class="st0" d="M24.34,148.65c2.46,64.05,55.02,115.25,119.66,115.25s117.2-51.2,119.66-115.25h-34.84c-2.43,44.8-39.42,80.41-84.83,80.41s-82.4-35.61-84.83-80.41H24.34ZM263.66,139.35c-2.46-64.04-55.02-115.25-119.66-115.25S26.8,75.3,24.34,139.35h34.84c2.43-44.8,39.42-80.41,84.83-80.41s82.4,35.61,84.83,80.41h34.84Z"/>
  <path class="st0" d="M116.63,90.87c-5.7,13.2-6.25,28.65-1.35,41.82,4.63,12.42,13.77,22.1,25.76,27.29l-.09.3c-8.62,4.83-17.87,7.39-26.74,7.39-10.58,0-20.08-3.52-28.02-10.1-1.16-5.01-1.69-10.26-1.52-15.65.17-4.97.95-9.76,2.25-14.33,3.7,9.67,9.13,16.31,18.41,20.45l1.6.72-.89-1.54c-6.31-10.89-10.21-27.24-5.29-44.2,4.56-4.91,9.92-9.02,15.88-12.15M164.3,190.73c5.32-13.3,3.78-29.2-4.17-43.66-.08-.03-.18-.05-.29-.08-7.72,18.14-25.28,29.39-45.94,29.39-7.76,0-15.5-1.66-22.55-4.77,3.09,6,7.16,11.39,11.98,15.98,5.06,1.49,10.29,2.27,15.68,2.27,9.91,0,19.92-2.68,28.18-7.58l1.52-.89-.71,1.62c-4.11,9.36-10.69,14.86-20.28,18.57,4.53,1.3,9.29,2.09,14.21,2.27,5.35.18,10.56-.36,15.51-1.52,2.88-3.57,5.18-7.43,6.85-11.61M201.82,130.44c-7.95-6.58-17.44-10.09-28.02-10.09-8.88,0-18.12,2.55-26.75,7.38-.02.1-.04.21-.08.32,12.01,5.18,21.14,14.86,25.75,27.27,4.91,13.18,4.36,28.63-1.34,41.82,5.95-3.12,11.33-7.25,15.89-12.15,4.91-16.95,1-33.31-5.3-44.2l-.9-1.53,1.61.71c9.28,4.15,14.71,10.79,18.42,20.46,1.28-4.58,2.06-9.38,2.23-14.33.19-5.4-.35-10.63-1.5-15.66M201.82,130.44c-7.95-6.58-17.44-10.09-28.02-10.09-8.88,0-18.12,2.55-26.75,7.38-.02.1-.04.21-.08.32,12.01,5.18,21.14,14.86,25.75,27.27,4.91,13.18,4.36,28.63-1.34,41.82,5.95-3.12,11.33-7.25,15.89-12.15,4.91-16.95,1-33.31-5.3-44.2l-.9-1.53,1.61.71c9.28,4.15,14.71,10.79,18.42,20.46,1.28-4.58,2.06-9.38,2.23-14.33.19-5.4-.35-10.63-1.5-15.66M196.68,116.39c-3.1-5.98-7.16-11.38-12-15.98-5.07-1.5-10.29-2.28-15.69-2.28-9.9,0-19.9,2.7-28.18,7.57l-1.52.9.71-1.62c4.1-9.37,10.69-14.86,20.28-18.57-4.54-1.31-9.28-2.1-14.21-2.26-5.33-.18-10.54.36-15.52,1.52-2.88,3.55-5.18,7.42-6.85,11.6-5.3,13.3-3.78,29.2,4.17,43.66.1.03.2.05.3.07,7.73-18.13,25.29-29.38,45.95-29.38,7.75,0,15.5,1.66,22.56,4.76"/>
  <path class="st0" d="M271.9,144c0,70.64-57.26,127.9-127.9,127.9S16.09,214.64,16.09,144,73.36,16.1,144,16.1s127.9,57.26,127.9,127.9M277.36,144c0-73.65-59.7-133.36-133.36-133.36S10.64,70.35,10.64,144s59.7,133.36,133.36,133.36,133.36-59.7,133.36-133.36"/>
  <g>
    <path class="st1" d="M59.9,187.8l5.85,9.85-2.12,1.26-4.47-7.53-3.61,2.15,3.96,6.68-2.12,1.26-3.96-6.68-5.39,3.2-1.38-2.33,13.24-7.86Z"/>
    <path class="st1" d="M60.97,206.2l6.75-5.75,1.76,2.06-6.67,5.68c-2.18,1.86-2.38,3.96-.81,5.8,1.55,1.83,3.6,2.02,5.76.18l6.75-5.75,1.75,2.06-6.65,5.67c-3.5,2.98-6.94,2.5-9.55-.56-2.6-3.05-2.49-6.49.9-9.38Z"/>
    <path class="st1" d="M79.52,213.5l2.07,1.74-8.31,9.91,6.2,5.2-1.58,1.89-8.27-6.94,9.89-11.79Z"/>
    <path class="st1" d="M90.78,222.47l2.31,1.4-6.71,11.06,6.92,4.2-1.28,2.11-9.23-5.6,7.99-13.17Z"/>
    <path class="st1" d="M108.86,232.68l2.83.74.67,11.98,6.56-10.14,2.21.58.77,12.05,6.44-10.12,2.75.72-9.09,13.66-2.28-.6-.87-11.67-6.46,9.75-2.26-.59-1.28-16.37Z"/>
    <path class="st1" d="M137.91,238.38l2.5.13,5.96,15.84-2.86-.15-1.37-3.79-7.27-.38-1.78,3.63-2.77-.14,7.58-15.14ZM141.28,247.96l-2.34-6.29-2.96,6.01,5.29.28Z"/>
    <path class="st1" d="M150.45,238.66l6.81-.89c1.92-.25,3.5.12,4.61.95.92.72,1.52,1.8,1.7,3.13v.04c.34,2.51-.97,4.21-3.01,5.1l4.88,5.24-3.19.42-4.45-4.83-3.36.44.7,5.32-2.68.35-2-15.27ZM158.05,245.36c1.92-.25,3.01-1.42,2.81-2.96v-.04c-.22-1.64-1.52-2.38-3.5-2.12l-3.91.51.67,5.13,3.93-.51Z"/>
    <path class="st1" d="M166.81,236.11l6.54-2.07c1.85-.58,3.46-.5,4.7.13,1.03.55,1.81,1.5,2.22,2.78v.04c.78,2.41-.21,4.32-2.06,5.55l5.72,4.3-3.06.97-5.23-3.97-3.23,1.02,1.62,5.12-2.58.82-4.65-14.68ZM175.47,241.38c1.84-.58,2.71-1.92,2.24-3.41v-.04c-.51-1.57-1.92-2.07-3.82-1.47l-3.75,1.19,1.56,4.93,3.78-1.19Z"/>
    <path class="st1" d="M187.21,228.13l2.21-1.18,13.26,10.52-2.53,1.34-3.12-2.55-6.43,3.42.35,4.03-2.45,1.3-1.29-16.88ZM195.04,234.61l-5.24-4.19.56,6.68,4.68-2.49Z"/>
    <path class="st1" d="M198.12,221.97l1.96-1.57,13.1,3.13-6.67-8.3,2.08-1.67,9.64,12-1.77,1.42-13.48-3.22,6.86,8.54-2.08,1.67-9.65-12.01Z"/>
    <path class="st1" d="M216.21,209.07l-3.22,3.67-1.88-1.65,8.24-9.39,1.88,1.65-3.22,3.67,9.69,8.5-1.8,2.05-9.69-8.5Z"/>
    <path class="st1" d="M231.76,199.86l-11.15.29,1.69-2.73,8.04-.07-3.49-7.28,1.63-2.64,4.66,10.08,5.22,3.23-1.44,2.32-5.16-3.2Z"/>
  </g>
  <g>
    <path class="st1" d="M50.59,90l6.06-9.73,2.09,1.3-4.63,7.43,3.57,2.22,4.1-6.59,2.09,1.3-4.1,6.59,5.32,3.31-1.43,2.3-13.07-8.14Z"/>
    <path class="st1" d="M66.7,81.54l-6.61-5.92,1.81-2.02,6.52,5.84c2.13,1.91,4.25,1.82,5.86.02,1.6-1.79,1.52-3.84-.6-5.73l-6.61-5.92,1.8-2.02,6.51,5.83c3.42,3.07,3.41,6.54.73,9.54-2.67,2.98-6.1,3.34-9.42.36Z"/>
    <path class="st1" d="M73.9,61.3l2.12-1.68,8.04,10.13,6.34-5.03,1.53,1.93-8.46,6.71-9.57-12.06Z"/>
    <path class="st1" d="M87.13,51.47l2.35-1.33,6.38,11.25,7.04-3.99,1.21,2.14-9.4,5.33-7.59-13.4Z"/>
    <path class="st1" d="M109.23,40.38l2.85-.64,6.1,10.33,1.17-12.01,2.23-.5,6.21,10.35,1.07-11.95,2.77-.62-1.8,16.31-2.3.52-6.13-9.96-1.26,11.63-2.28.51-8.65-13.95Z"/>
    <path class="st1" d="M141.24,35.13l2.51-.04,7.01,15.41-2.86.04-1.62-3.69-7.28.11-1.53,3.74-2.77.04,6.54-15.61ZM145.25,44.47l-2.75-6.12-2.55,6.2,5.3-.08Z"/>
    <path class="st1" d="M156.29,35.74l6.76,1.17c1.91.33,3.31,1.15,4.12,2.28.66.96.92,2.17.69,3.49v.04c-.44,2.49-2.19,3.73-4.4,3.97l3.1,6.45-3.17-.55-2.81-5.93-3.34-.58-.92,5.29-2.67-.46,2.62-15.18ZM161.55,44.4c1.91.33,3.29-.46,3.56-2v-.04c.29-1.63-.73-2.72-2.7-3.06l-3.88-.67-.88,5.1,3.9.67Z"/>
    <path class="st1" d="M174.87,39.59l6.45,2.35c1.82.66,3.05,1.72,3.65,2.97.48,1.06.52,2.3.06,3.56v.04c-.88,2.38-2.83,3.28-5.04,3.13l1.91,6.9-3.02-1.1-1.71-6.34-3.18-1.16-1.84,5.04-2.54-.93,5.28-14.47ZM178.52,49.05c1.82.66,3.32.14,3.86-1.33v-.04c.58-1.55-.23-2.8-2.11-3.49l-3.7-1.35-1.77,4.86,3.72,1.36Z"/>
    <path class="st1" d="M197.27,49.34l2.16,1.28-2.06,16.79-2.46-1.45.55-3.99-6.27-3.7-3.25,2.39-2.39-1.41,13.72-9.9ZM195.83,59.39l.84-6.66-5.41,3.96,4.56,2.7Z"/>
    <path class="st1" d="M209.86,57.69l1.88,1.66-.89,13.44,7.06-7.97,1.99,1.77-10.21,11.53-1.7-1.5.91-13.83-7.27,8.2-1.99-1.77,10.21-11.53Z"/>
    <path class="st1" d="M225.01,76.32l-3.03-3.83,1.97-1.56,7.75,9.8-1.97,1.56-3.03-3.83-10.12,8-1.69-2.14,10.11-8Z"/>
    <path class="st1" d="M228.89,94.09l5.25-9.84,1.54,2.82-3.91,7.02,8.05.57,1.49,2.72-11.06-.93-5.39,2.94-1.31-2.39,5.33-2.91Z"/>
  </g>
</svg>