<?xml version="1.0" encoding="UTF-8"?>
<svg id="Layer_1" xmlns="http://www.w3.org/2000/svg" version="1.1" viewBox="0 0 288 288">
  <!-- Generator: Adobe Illustrator 29.6.0, SVG Export Plug-In . SVG Version: 2.1.1 Build 207)  -->
  <defs>
    <style>
      .st0 {
        fill: #fff;
      }

      .st1 {
        fill: #636466;
      }
    </style>
  </defs>
  <path class="st1" d="M144,288c79.53,0,144-64.47,144-144S223.53,0,144,0,0,64.47,0,144s64.47,144,144,144"/>
  <path class="st0" d="M24.34,148.65c2.46,64.05,55.02,115.25,119.66,115.25s117.2-51.2,119.66-115.25h-34.84c-2.43,44.8-39.42,80.41-84.83,80.41s-82.4-35.61-84.83-80.41H24.34ZM263.66,139.35c-2.46-64.04-55.02-115.25-119.66-115.25S26.8,75.3,24.34,139.35h34.84c2.43-44.8,39.42-80.41,84.83-80.41s82.4,35.61,84.83,80.41h34.84Z"/>
  <path class="st0" d="M116.63,90.87c-5.7,13.2-6.25,28.65-1.35,41.82,4.63,12.42,13.77,22.1,25.76,27.29l-.09.3c-8.62,4.83-17.87,7.39-26.74,7.39-10.58,0-20.08-3.52-28.02-10.1-1.16-5.01-1.69-10.26-1.52-15.65.17-4.97.95-9.76,2.25-14.33,3.7,9.67,9.13,16.31,18.41,20.45l1.6.72-.89-1.54c-6.31-10.89-10.21-27.24-5.29-44.2,4.56-4.91,9.92-9.02,15.88-12.15M164.3,190.73c5.32-13.3,3.78-29.2-4.17-43.66-.08-.03-.18-.05-.29-.08-7.72,18.14-25.28,29.39-45.94,29.39-7.76,0-15.5-1.66-22.55-4.77,3.09,6,7.16,11.39,11.98,15.98,5.06,1.49,10.29,2.27,15.68,2.27,9.91,0,19.92-2.68,28.18-7.58l1.52-.89-.71,1.62c-4.11,9.36-10.69,14.86-20.28,18.57,4.53,1.3,9.29,2.09,14.21,2.27,5.35.18,10.56-.36,15.51-1.52,2.88-3.57,5.18-7.43,6.85-11.61M201.82,130.44c-7.95-6.58-17.44-10.09-28.02-10.09-8.88,0-18.12,2.55-26.75,7.38-.02.1-.04.21-.08.32,12.01,5.18,21.14,14.86,25.75,27.27,4.91,13.18,4.36,28.63-1.34,41.82,5.95-3.12,11.33-7.25,15.89-12.15,4.91-16.95,1-33.31-5.3-44.2l-.9-1.53,1.61.71c9.28,4.15,14.71,10.79,18.42,20.46,1.28-4.58,2.06-9.38,2.23-14.33.19-5.4-.35-10.63-1.5-15.66M201.82,130.44c-7.95-6.58-17.44-10.09-28.02-10.09-8.88,0-18.12,2.55-26.75,7.38-.02.1-.04.21-.08.32,12.01,5.18,21.14,14.86,25.75,27.27,4.91,13.18,4.36,28.63-1.34,41.82,5.95-3.12,11.33-7.25,15.89-12.15,4.91-16.95,1-33.31-5.3-44.2l-.9-1.53,1.61.71c9.28,4.15,14.71,10.79,18.42,20.46,1.28-4.58,2.06-9.38,2.23-14.33.19-5.4-.35-10.63-1.5-15.66M196.68,116.39c-3.1-5.98-7.16-11.38-12-15.98-5.07-1.5-10.29-2.28-15.69-2.28-9.9,0-19.9,2.7-28.18,7.57l-1.52.9.71-1.62c4.1-9.37,10.69-14.86,20.28-18.57-4.54-1.31-9.28-2.1-14.21-2.26-5.33-.18-10.54.36-15.52,1.52-2.88,3.55-5.18,7.42-6.85,11.6-5.3,13.3-3.78,29.2,4.17,43.66.1.03.2.05.3.07,7.73-18.13,25.29-29.38,45.95-29.38,7.75,0,15.5,1.66,22.56,4.76"/>
  <path class="st0" d="M271.9,144c0,70.64-57.26,127.9-127.9,127.9S16.09,214.64,16.09,144,73.36,16.1,144,16.1s127.9,57.26,127.9,127.9M277.36,144c0-73.65-59.7-133.36-133.36-133.36S10.64,70.35,10.64,144s59.7,133.36,133.36,133.36,133.36-59.7,133.36-133.36"/>
  <g>
    <path class="st1" d="M54.03,176.05l.99,2.39-11.41,4.72,2.95,7.14-2.17.9-3.94-9.53,13.58-5.62Z"/>
    <path class="st1" d="M59.84,188.9l1.25,2.26-12.87,7.1-1.25-2.26,12.87-7.1Z"/>
    <path class="st1" d="M63.32,195.36l1.65,2.2-2.88,7.75,8.25-.58,1.65,2.2-11.77,8.81-1.55-2.07,8.44-6.32-8.33.44-.05-.07,2.76-7.81-8.41,6.29-1.52-2.04,11.77-8.81Z"/>
    <path class="st1" d="M75.38,210.24l1.82,1.83-10.44,10.35-1.82-1.84,10.44-10.35Z"/>
    <path class="st1" d="M82.02,219.63l-3.64-2.91,1.5-1.87,9.32,7.45-1.5,1.87-3.64-2.91-7.69,9.62-2.03-1.63,7.69-9.61Z"/>
    <path class="st1" d="M92.08,224.19l9.45,5.43-1.15,2-7.21-4.14-1.9,3.31,6.39,3.67-1.15,2-6.39-3.67-1.97,3.42,7.3,4.2-1.15,2-9.54-5.48,7.32-12.75Z"/>
    <path class="st1" d="M105,231.29l5.14,1.9c4.34,1.6,6.23,5.68,4.8,9.56v.04c-1.45,3.88-5.55,5.79-9.89,4.2l-5.14-1.9,5.08-13.8ZM106.61,234.39l-3.46,9.38,2.72,1c2.9,1.07,5.51-.19,6.5-2.89l.02-.04c1-2.7-.16-5.39-3.06-6.46l-2.72-1Z"/>
    <path class="st1" d="M127.05,238.48l2.79.18,2.8,11.1,4.31-10.69,2.18.14,2.9,11.15,4.2-10.65,2.7.17-6.04,14.45-2.24-.14-2.93-10.77-4.28,10.31-2.22-.14-4.17-15.1Z"/>
    <path class="st1" d="M155.37,238.62l2.37-.31,8.35,13.83-2.71.36-1.94-3.32-6.89.91-1.03,3.72-2.62.35,4.48-15.52ZM160.2,247.03l-3.29-5.5-1.73,6.16,5.02-.66Z"/>
    <path class="st1" d="M167.2,236.71l6.25-1.97c1.76-.56,3.31-.47,4.49.12.98.53,1.73,1.44,2.12,2.66v.04c.74,2.3-.21,4.12-1.97,5.29l5.46,4.11-2.92.92-4.99-3.8-3.08.97,1.54,4.89-2.46.78-4.42-14.02ZM175.46,241.75c1.76-.56,2.59-1.83,2.14-3.25v-.04c-.49-1.5-1.83-1.98-3.65-1.41l-3.58,1.13,1.48,4.71,3.6-1.14Z"/>
    <path class="st1" d="M182.19,231.6l5.83-2.98c1.65-.84,3.18-1.01,4.45-.62,1.05.36,1.94,1.13,2.52,2.27l.02.04c1.1,2.15.46,4.1-1.08,5.55l6.06,3.15-2.73,1.39-5.54-2.92-2.88,1.47,2.33,4.56-2.3,1.17-6.68-13.09ZM191.17,235.2c1.65-.84,2.25-2.23,1.58-3.56l-.02-.04c-.72-1.4-2.12-1.65-3.82-.79l-3.35,1.71,2.24,4.39,3.37-1.72Z"/>
    <path class="st1" d="M200.24,220.91l1.91-1.44,14.05,7.95-2.18,1.64-3.32-1.94-5.55,4.17.92,3.74-2.12,1.59-3.71-15.71ZM208.58,225.86l-5.56-3.17,1.51,6.21,4.04-3.04Z"/>
    <path class="st1" d="M209.64,213.48l1.63-1.76,12.81,1.14-7.45-6.91,1.73-1.86,10.78,10-1.47,1.59-13.18-1.17,7.67,7.11-1.73,1.86-10.78-10Z"/>
    <path class="st1" d="M224.99,198.82l-2.56,3.89-2-1.32,6.56-9.96,2,1.32-2.56,3.89,10.28,6.77-1.43,2.17-10.28-6.77Z"/>
    <path class="st1" d="M238.53,188.11l-10.52,1.66,1.26-2.79,7.6-1.06-4.2-6.46,1.22-2.7,5.66,8.96,5.34,2.41-1.07,2.37-5.28-2.38Z"/>
  </g>
  <g>
    <path class="st1" d="M43.78,104.38l1.01-2.38,11.36,4.84,3.03-7.11,2.16.92-4.04,9.49-13.52-5.76Z"/>
    <path class="st1" d="M50.43,90.23l1.28-2.24,12.76,7.29-1.28,2.24-12.76-7.29Z"/>
    <path class="st1" d="M55.06,82.22l1.69-2.17,8.23.73-2.75-7.79,1.69-2.17,11.61,9.01-1.58,2.04-8.33-6.46,2.63,7.91-.05.07-8.26-.59,8.29,6.43-1.56,2.01-11.61-9.01Z"/>
    <path class="st1" d="M68.64,66.14l1.85-1.8,10.23,10.55-1.85,1.8-10.23-10.55Z"/>
    <path class="st1" d="M79.58,59.66l-3.71,2.83-1.45-1.9,9.48-7.24,1.45,1.9-3.71,2.83,7.47,9.78-2.07,1.58-7.47-9.78Z"/>
    <path class="st1" d="M88.62,50.36l9.59-5.19,1.1,2.03-7.32,3.96,1.82,3.36,6.48-3.51,1.1,2.03-6.48,3.51,1.88,3.47,7.41-4.01,1.1,2.03-9.68,5.24-7-12.93Z"/>
    <path class="st1" d="M103.8,42.68l5.2-1.75c4.38-1.47,8.42.51,9.74,4.43v.04c1.33,3.92-.67,7.99-5.05,9.46l-5.2,1.75-4.69-13.93ZM107,44.09l3.19,9.48,2.75-.92c2.93-.99,4.17-3.6,3.26-6.33v-.04c-.93-2.73-3.52-4.09-6.45-3.11l-2.75.92Z"/>
    <path class="st1" d="M130,35.44l2.79-.08,3.82,10.79,3.29-11.04,2.18-.06,3.93,10.83,3.19-10.99,2.71-.08-4.67,14.94-2.25.06-3.92-10.45-3.3,10.66-2.22.06-5.55-14.65Z"/>
    <path class="st1" d="M161.02,36.3l2.36.4,3.87,15.69-2.69-.46-.87-3.75-6.85-1.18-2.09,3.24-2.61-.45,8.88-13.5ZM163.14,45.77l-1.51-6.23-3.48,5.37,4.99.86Z"/>
    <path class="st1" d="M175.05,39.5l6.16,2.23c1.74.63,2.91,1.64,3.49,2.83.46,1.02.5,2.19.06,3.4v.04c-.84,2.27-2.69,3.14-4.81,3l1.83,6.58-2.88-1.05-1.65-6.05-3.04-1.1-1.75,4.82-2.43-.88,5.01-13.82ZM178.54,48.52c1.74.63,3.17.12,3.68-1.28v-.04c.55-1.48-.22-2.68-2.02-3.33l-3.53-1.28-1.68,4.64,3.55,1.29Z"/>
    <path class="st1" d="M191.88,46.21l5.69,3.24c1.61.91,2.59,2.11,2.96,3.38.28,1.08.12,2.25-.51,3.36l-.02.04c-1.2,2.1-3.17,2.64-5.23,2.14l.7,6.8-2.66-1.52-.6-6.24-2.81-1.6-2.54,4.45-2.25-1.28,7.27-12.77ZM193.81,55.69c1.61.91,3.11.66,3.84-.64l.02-.04c.78-1.37.22-2.68-1.44-3.62l-3.27-1.86-2.44,4.29,3.29,1.87Z"/>
    <path class="st1" d="M211.49,58.92l1.84,1.53-4.5,15.52-2.1-1.75,1.12-3.68-5.35-4.45-3.43,1.76-2.03-1.69,14.44-7.25ZM208.59,68.18l1.81-6.15-5.7,2.91,3.89,3.24Z"/>
    <path class="st1" d="M222.1,68.7l1.53,1.84-2.76,12.56,7.81-6.51,1.63,1.95-11.29,9.41-1.38-1.66,2.84-12.92-8.03,6.7-1.63-1.95,11.29-9.41Z"/>
    <path class="st1" d="M233.81,88.47l-2.34-4.03,2.07-1.2,5.98,10.32-2.07,1.2-2.34-4.03-10.64,6.17-1.31-2.25,10.64-6.17Z"/>
    <path class="st1" d="M235.15,105.85l6.24-8.63,1.09,2.87-4.61,6.14,7.55,1.58,1.05,2.77-10.34-2.31-5.48,2.09-.93-2.43,5.42-2.06Z"/>
  </g>
</svg>