<svg width="234" height="165" viewBox="0 0 234 165" xmlns="http://www.w3.org/2000/svg" xmlns:xlink="http://www.w3.org/1999/xlink"><defs><linearGradient x1="0%" y1="50%" x2="100%" y2="50%" id="b"><stop stop-color="#EBEBEB" offset="0%"/><stop stop-color="#EDEDED" offset="100%"/></linearGradient><linearGradient x1="14.644%" y1="85.171%" x2="85.355%" y2="14.828%" id="e"><stop stop-color="#FFF" offset="0%"/><stop stop-color="#D3D4D6" offset="100%"/></linearGradient><linearGradient x1="46.783%" y1="55.452%" x2="53.615%" y2="41.702%" id="h"><stop stop-color="#EBEBEB" offset="0%"/><stop stop-color="#EDEDED" offset="100%"/></linearGradient><linearGradient x1="48.134%" y1="40.908%" x2="52.505%" y2="60.321%" id="k"><stop stop-color="#EBEBEB" offset="0%"/><stop stop-color="#EDEDED" offset="100%"/></linearGradient><path d="M0 78.562c0 43.388 35.265 78.561 78.767 78.561 43.501 0 78.767-35.173 78.767-78.561C157.534 35.172 122.268 0 78.767 0 35.265 0 0 35.173 0 78.562" id="a"/><path d="M0 55.916c0 30.881 25.1 55.916 56.061 55.916 30.963 0 56.063-25.035 56.063-55.916C112.124 25.034 87.024 0 56.061 0 25.1 0 0 25.034 0 55.916" id="d"/><path d="M2.657.735 0 37.427c-.042 4.187 1.884 7.89 4.875 10.213 2.35 1.824 3.63 4.931 3.508 8.13l-3.057 80.332c-.141 3.707 2.488 6.802 5.804 6.836 3.312.032 6-3 5.94-6.704l-1.284-80.548c-.05-3.157 1.256-6.201 3.594-7.978 2.982-2.268 4.94-5.897 4.982-10.04L22.266.93c-1.33-1.733-2.574-.026-2.574-.026l-.341 34.22c-.015 1.494-1.125 2.693-2.48 2.68-1.328-.013-2.403-1.191-2.425-2.657l-.494-34.3C12.487-.85 11.116.82 11.116.82L9.75 35.203c-.056 1.41-1.115 2.519-2.395 2.506-1.31-.012-2.36-1.194-2.345-2.638L5.353.76C4.86.19 4.393 0 3.99 0c-.792 0-1.333.735-1.333.735" id="g"/><path d="M11.883.459C8.53 6.365 1.236 25.089 0 77.419l4.991.003-1.948 62.903c-.118 3.82 2.82 6.984 6.487 6.987 3.661.003 6.602-3.146 6.5-6.96l-2.5-92.633.039-46.754A.936.936 0 0 0 12.64 0a.858.858 0 0 0-.758.459" id="j"/></defs><g fill="none" fill-rule="evenodd"><path d="M121.697 4.08c-44.553 0-80.67 36.023-80.67 80.46 0 44.437 36.117 80.46 80.67 80.46 44.553 0 80.67-36.023 80.67-80.46 0-44.437-36.117-80.46-80.67-80.46M22.823 12.608l-.341 34.22c-.015 1.493-1.125 2.693-2.479 2.68-1.328-.013-2.404-1.191-2.425-2.656l-.495-34.301c-1.464-1.698-2.837-.028-2.837-.028l-1.364 34.384c-.056 1.41-1.115 2.52-2.395 2.506-1.31-.013-2.36-1.194-2.345-2.638l.342-34.31c-1.465-1.697-2.696-.026-2.696-.026L3.13 49.13c-.041 4.188 1.886 7.891 4.876 10.213 2.35 1.825 3.63 4.932 3.508 8.132l-3.056 80.331c-.142 3.707 2.487 6.802 5.804 6.836 3.31.033 5.998-3 5.94-6.704L18.917 67.39c-.05-3.157 1.257-6.201 3.594-7.978 2.982-2.268 4.94-5.897 4.982-10.04l-2.097-36.739c-1.331-1.732-2.574-.025-2.574-.025M231.499 58.177l.039-46.754c0-.965-1.215-1.335-1.686-.506-3.355 5.906-10.648 24.63-11.884 76.96l4.992.004-1.949 62.903c-.118 3.82 2.82 6.983 6.487 6.986 3.662.004 6.603-3.145 6.5-6.96l-2.5-92.633Z" fill="#A2AAAD"/><path d="M118.565 0c-44.553 0-80.67 36.023-80.67 80.46 0 44.437 36.117 80.46 80.67 80.46 44.554 0 80.67-36.023 80.67-80.46 0-44.437-36.116-80.46-80.67-80.46" fill="#FFF"/><g transform="translate(39.799 1.898)"><mask id="c" fill="#fff"><use xlink:href="#a"/></mask><path d="M0 78.562c0 43.388 35.265 78.561 78.767 78.561 43.501 0 78.767-35.173 78.767-78.561C157.534 35.172 122.268 0 78.767 0 35.265 0 0 35.173 0 78.562" fill="url(#b)" mask="url(#c)"/></g><g transform="translate(62.504 24.544)"><mask id="f" fill="#fff"><use xlink:href="#d"/></mask><path d="M0 55.916c0 30.881 25.1 55.916 56.061 55.916 30.963 0 56.063-25.035 56.063-55.916C112.124 25.034 87.024 0 56.061 0 25.1 0 0 25.034 0 55.916" fill="url(#e)" mask="url(#f)"/></g><path d="M118.566 132.719c-28.938 0-52.396-23.398-52.396-52.26 0-28.861 23.458-52.258 52.396-52.258 28.937 0 52.395 23.397 52.395 52.259 0 28.861-23.458 52.259-52.395 52.259" fill="#F3F3F3"/><path d="m124.743 81.605.128.02c3.36 6 4.002 12.577 1.764 18.115a18.655 18.655 0 0 1-2.894 4.813 25.276 25.276 0 0 1-12.559-.304c4.05-1.547 6.828-3.821 8.564-7.71l.3-.672-.639.372a24.111 24.111 0 0 1-11.892 3.137l-.61-.008a23.604 23.604 0 0 1-6.007-.934 24.989 24.989 0 0 1-5.065-6.629 24.069 24.069 0 0 0 9.523 1.978c8.712 0 16.126-4.663 19.387-12.178Zm6.02-11.229.444.002a18.13 18.13 0 0 1 11.313 4.22 25.197 25.197 0 0 1-.297 12.528c-1.551-4.04-3.836-6.816-7.731-8.548l-.675-.3.373.642a23.956 23.956 0 0 1 2.226 18.475 25.088 25.088 0 0 1-6.672 5.075 23.705 23.705 0 0 0 .567-17.475 19.85 19.85 0 0 0-10.81-11.408c.009-.04.032-.084.032-.128a23.277 23.277 0 0 1 11.23-3.083Zm-24.167-12.444a23.72 23.72 0 0 0-.567 17.495 19.834 19.834 0 0 0 10.809 11.384l-.032.128a23.235 23.235 0 0 1-11.225 3.087 18.15 18.15 0 0 1-11.765-4.218 25.161 25.161 0 0 1 .309-12.532c1.55 4.043 3.83 6.816 7.724 8.548l.678.3-.372-.638a23.94 23.94 0 0 1-2.225-18.479 25.163 25.163 0 0 1 6.666-5.075Zm6-2.083a25.241 25.241 0 0 1 12.547.304c-4.044 1.542-6.824 3.819-8.559 7.72l-.3.673.643-.368a24.017 24.017 0 0 1 11.897-3.163c2.243 0 4.474.318 6.625.945a24.983 24.983 0 0 1 5.05 6.626l-.003-.004-.522-.219a24.088 24.088 0 0 0-8.41-1.746l-.578-.008c-8.723 0-16.137 4.677-19.395 12.188l-.124-.031c-3.358-5.997-4-12.572-1.763-18.106a18.298 18.298 0 0 1 2.892-4.811Z" fill="#A2AAAD" opacity=".26"/><path d="M109.193 35.57c31.72 0 57.851 22.427 61.363 51.295.257-2.1.405-4.235.405-6.405 0-28.862-23.458-52.259-52.396-52.259a52.26 52.26 0 0 0-33.217 11.847c7.337-2.883 15.392-4.477 23.845-4.477" fill="#F9F9F9"/><g transform="translate(0 7.624)"><mask id="i" fill="#fff"><use xlink:href="#g"/></mask><path d="M2.657.735 0 37.427c-.042 4.187 1.884 7.89 4.875 10.213 2.35 1.824 3.63 4.931 3.508 8.13l-3.057 80.332c-.141 3.707 2.488 6.802 5.804 6.836 3.312.032 6-3 5.94-6.704l-1.284-80.548c-.05-3.157 1.256-6.201 3.594-7.978 2.982-2.268 4.94-5.897 4.982-10.04L22.266.93c-1.33-1.733-2.574-.026-2.574-.026l-.341 34.22c-.015 1.494-1.125 2.693-2.48 2.68-1.328-.013-2.403-1.191-2.425-2.657l-.494-34.3C12.487-.85 11.116.82 11.116.82L9.75 35.203c-.056 1.41-1.115 2.519-2.395 2.506-1.31-.012-2.36-1.194-2.345-2.638L5.353.76C4.86.19 4.393 0 3.99 0c-.792 0-1.333.735-1.333.735" fill="url(#h)" mask="url(#i)"/></g><g transform="translate(214.837 6.378)"><mask id="l" fill="#fff"><use xlink:href="#j"/></mask><path d="M11.883.459C8.53 6.365 1.236 25.089 0 77.419l4.991.003-1.948 62.903c-.118 3.82 2.82 6.984 6.487 6.987 3.661.003 6.602-3.146 6.5-6.96l-2.5-92.633.039-46.754A.936.936 0 0 0 12.64 0a.858.858 0 0 0-.758.459" fill="url(#k)" mask="url(#l)"/></g></g></svg>