<?xml version="1.0" encoding="UTF-8"?>
<svg width="37px" height="32px" viewBox="0 0 37 32" version="1.1" xmlns="http://www.w3.org/2000/svg" xmlns:xlink="http://www.w3.org/1999/xlink">
    <title>icon/difficulty</title>
    <g id="---•-Symbols" stroke="none" stroke-width="1" fill="none" fill-rule="evenodd">
        <g id="icon/difficulty/large-grey" transform="translate(-1.000000, -3.000000)" fill="#A2AAAD" fill-rule="nonzero">
            <g id="noun-levels-3082096" transform="translate(1.000000, 3.000000)">
                <path d="M7.10534437,17.9124477 L7.10534437,0.795396479 C7.10534437,0.378817548 6.76526211,0 6.31154239,0 L3.7793667,0 C3.36362287,0 2.98556472,0.34076538 2.98556472,0.795396479 L2.98556472,17.9503173 C1.20926237,18.7457138 0,20.4875793 0,22.5704064 C0,24.653301 1.24719101,26.3951666 2.98556472,27.1904954 L2.98556472,31.2046035 C2.98556472,31.6211825 3.32564698,32 3.7793667,32 L6.31154239,32 C6.72728623,32 7.10534437,31.6592346 7.10534437,31.2046035 L7.10534437,27.152423 C8.88164672,26.3570265 10.0909091,24.5774266 10.0909091,22.5323339 C10.0909091,20.4875117 8.84371808,18.7075737 7.10534437,17.9122449 L7.10534437,17.9124477 Z M5.06435138,25.0697988 C3.66605319,25.0697988 2.56990187,23.9336437 2.56990187,22.5703387 C2.56990187,21.2070338 3.70377937,20.0708787 5.06435138,20.0708787 C6.42492339,20.0708787 7.55880089,21.2070338 7.55880089,22.5703387 C7.55880089,23.9339142 6.42492339,25.0697988 5.06435138,25.0697988 Z" id="Shape"></path>
                <path d="M20.5598898,11.3988555 L20.5598898,0.795394798 C20.5598898,0.378816747 20.2198075,0 19.7660878,0 L17.2339121,0 C16.8181683,0 16.4401101,0.34076466 16.4401101,0.795394798 L16.4401101,11.3988555 C14.6638078,12.1942503 13.4545455,13.9738464 13.4545455,16.0189348 C13.4545455,18.0637526 14.7017365,19.8436869 16.4401101,20.639014 L16.4401101,31.2046052 C16.4401101,31.6211833 16.7801924,32 17.2339121,32 L19.7660878,32 C20.1818316,32 20.5598898,31.6592353 20.5598898,31.2046052 L20.5598898,20.639014 C22.3361921,19.8436192 23.5454545,18.1017574 23.5454545,16.0189348 C23.5457181,13.9360445 22.3361921,12.1941826 20.5598898,11.3988555 Z M18.5191667,18.5183219 C17.1208686,18.5183219 16.0247173,17.3821692 16.0247173,16.0188671 C16.0247173,14.655565 17.1585947,13.5194123 18.5191667,13.5194123 C19.8797387,13.5194123 21.0136162,14.655565 21.0136162,16.0188671 C21.0136162,17.3821692 19.9174649,18.5183219 18.5191667,18.5183219 Z" id="Shape"></path>
                <path d="M37,9.42959364 C37,7.38477144 35.752809,5.60483344 34.0144353,4.80950459 L34.0144353,0.795396479 C34.0144353,0.378817548 33.674353,0 33.2206333,0 L30.6884576,0 C30.2727138,0 29.8946556,0.34076538 29.8946556,0.795396479 L29.8946556,4.80950459 C28.1183533,5.60490107 26.9090909,7.34676661 26.9090909,9.42959364 C26.9090909,11.5124883 28.1562819,13.2543538 29.8946556,14.0496827 L29.8946556,31.2046035 C29.8946556,31.6211825 30.2347379,32 30.6884576,32 L33.2206333,32 C33.6363771,32 34.0144353,31.6592346 34.0144353,31.2046035 L34.0144353,14.0496827 C35.752809,13.2542862 37,11.4744158 37,9.42959364 Z M31.9357161,11.9287832 C30.5374179,11.9287832 29.4412666,10.7926281 29.4412666,9.42932314 C29.4412666,8.06601818 30.5751441,6.92986308 31.9357161,6.92986308 C33.2962881,6.92986308 34.4301656,8.06601818 34.4301656,9.42932314 C34.4301656,10.7928986 33.3340143,11.9287832 31.9357161,11.9287832 Z" id="Shape"></path>
            </g>
        </g>
    </g>
</svg>