<svg xmlns="http://www.w3.org/2000/svg" width="30" height="30" viewBox="0 0 30 30">
  <g fill="none" fill-rule="evenodd">
    <path fill="#FFF" d="M23.67 8.235h-5.433V2z"/>
    <path fill="#FFF" d="M23.67 15.134H6.332V3.239c0-.335.103-.628.317-.874A1 1 0 0 1 7.43 2h9.183v6.235c0 .532.161.983.481 1.348.32.372.7.554 1.142.554h5.433v4.997Z"/>
    <path fill="#D6D6D6" d="M24.771 17.006c.44 0 .86.097 1.255.293.394.196.736.462 1.02.798.29.338.52.733.696 1.188.171.458.258.94.258 1.448v5.633c0 .423-.181.634-.55.634H2.55c-.367 0-.55-.21-.55-.634v-5.633c0-.508.087-.99.26-1.448.174-.455.41-.85.704-1.188a3.396 3.396 0 0 1 1.04-.798 2.774 2.774 0 0 1 1.254-.293h19.513Zm-1.101 5.599H6.332a.5.5 0 0 0-.388.18.649.649 0 0 0-.164.455v.62c0 .172.054.315.164.431a.512.512 0 0 0 .388.169H23.67a.517.517 0 0 0 .388-.162.591.591 0 0 0 .163-.438v-.62a.65.65 0 0 0-.163-.446.491.491 0 0 0-.388-.19Z"/>
  </g>
</svg>
