<svg xmlns="http://www.w3.org/2000/svg" width="30" height="30" viewBox="0 0 30 30">
  <path fill="#FFF" d="M11.923 4.438a.75.75 0 0 1 .53.22l4.395 4.394h10.46a.75.75 0 0 1 .743.65l.007.1v15.386a.75.75 0 0 1-.75.75H2.692a.75.75 0 0 1-.75-.75v-20a.75.75 0 0 1 .75-.75h9.231ZM17.051 13c-.256 0-.505.04-.748.12-.222.073-.435.17-.642.288l-.119.071a4.226 4.226 0 0 0-.45.323l-.095.077-.09-.076c-.181-.15-.369-.28-.565-.394-.2-.118-.42-.216-.65-.29a2.453 2.453 0 0 0-.75-.119c-.443 0-.846.07-1.21.215a2.68 2.68 0 0 0-.942.613 2.63 2.63 0 0 0-.592.95c-.133.363-.198.759-.198 1.188 0 .258.036.515.108.772.074.253.168.49.285.713.118.222.253.435.408.64.158.205.314.386.475.549l3.06 3.089c.2.18.421.271.665.271.255 0 .486-.1.657-.277l3.057-3.071c.17-.174.327-.357.474-.55.154-.202.292-.416.413-.645.12-.224.215-.461.288-.713a2.79 2.79 0 0 0 .11-.778c0-.429-.064-.824-.193-1.185a2.58 2.58 0 0 0-.593-.955 2.685 2.685 0 0 0-.948-.613 3.238 3.238 0 0 0-1.083-.21Z"/>
</svg>
