<svg xmlns="http://www.w3.org/2000/svg" width="30" height="30" viewBox="0 0 30 30" fill="#FFF">
  <path d="M22 2.643c2.487 0 4.5 1.99 4.5 4.445 0 2.454-2.013 4.445-4.5 4.445a4.493 4.493 0 0 1-3.298-1.443l-.269-.288-.343.194-5.571 3.148-.35.197.118.384c.141.464.213.873.213 1.275 0 .687-.174 1.358-.504 1.999l-.22.427.419.237 5.355 3.026.41.232.256-.395A4.498 4.498 0 0 1 22 18.467c2.487 0 4.5 1.991 4.5 4.445s-2.013 4.445-4.5 4.445-4.5-1.99-4.5-4.445c0-.074.007-.144.027-.288l.003-.018.022-.172.037-.326-.285-.164-6.035-3.46-.287-.163-.263.199A4.49 4.49 0 0 1 8 19.445c-2.487 0-4.5-1.99-4.5-4.445 0-2.454 2.013-4.445 4.5-4.445 1.266 0 2.445.53 3.298 1.443l.27.288.342-.193 5.57-3.147.35-.198-.117-.383c-.141-.466-.213-.875-.213-1.277 0-2.454 2.013-4.445 4.5-4.445Z"/>
</svg>
