<?xml version="1.0" encoding="UTF-8"?>
<svg width="33px" height="37px" viewBox="0 0 33 37" version="1.1" xmlns="http://www.w3.org/2000/svg" xmlns:xlink="http://www.w3.org/1999/xlink">
    <title>icon/time/large-grey</title>
    <g id="---•-Symbols" stroke="none" stroke-width="1" fill="none" fill-rule="evenodd">
        <g id="icon/time/large-grey" transform="translate(-2.000000, -1.000000)" fill="#A2AAAD">
            <path d="M12.4295769,14.0655039 C11.5783932,14.5981392 14.7089209,22.2827759 15.4723747,23.5335612 C16.138904,24.6358849 17.5537485,24.9709266 18.6296974,24.2966924 C19.7111549,23.614883 20.0482687,22.177483 19.3817939,21.081178 C18.6257529,19.825896 13.2789243,13.5308071 12.4293728,14.0655731 L12.4295769,14.0655039 Z M11.79174,5.65314267 C13.5588505,5.02754248 15.4516392,4.6808093 17.426309,4.6808093 C19.4009788,4.6808093 21.2936995,5.02752173 23.060878,5.65314267 C23.6872896,5.87392564 24.5177376,5.43046415 24.1500883,4.46953174 C23.8815126,3.77232963 23.6224987,3.09020889 23.5178281,2.81327894 C23.2683761,2.15660282 22.3752318,1.61424073 21.9868401,1.52506694 C20.516719,1.1880813 18.9934158,1 17.4263158,1 C15.8592157,1 14.3357086,1.1878115 12.8636832,1.52506694 C12.4752984,1.61424765 11.5840515,2.15660974 11.3345995,2.81327894 C11.2299289,3.09027115 10.9690584,3.77205291 10.7023392,4.46953174 C10.3349415,5.43024277 11.1651108,5.87583503 11.7915496,5.65314267 L11.79174,5.65314267 Z M34.7504392,7.17158771 C34.3848981,6.72596778 33.9962345,6.2903652 33.5831561,5.8698855 C33.1719207,5.44966868 32.7433977,5.05618325 32.3071967,4.68246964 C32.0157704,4.43249936 31.1590237,4.22928134 30.6163228,4.78137714 C30.0736218,5.33347294 27.4781102,7.97177899 27.4781102,7.97177899 C28.2437402,8.5295476 28.9880838,9.14376758 29.6774773,9.84290674 C30.3668707,10.5422535 30.9666981,11.2995043 31.5168799,12.0802074 C31.5168799,12.0802074 34.1123235,9.44186679 34.6531883,8.88980558 C35.1977798,8.33582116 34.9977422,7.46620715 34.7504188,7.17163614 L34.7504392,7.17158771 Z M17.426173,6.61760328 C8.90481569,6.61760328 2,13.6415099 2,22.3077639 C2,30.974018 8.90481569,38 17.426173,38 C25.9434498,38 32.8503057,30.9760934 32.8503057,22.3077639 C32.8503057,13.6435853 25.9441299,6.61760328 17.426173,6.61760328 L17.426173,6.61760328 Z M17.426173,34.1258863 C11.0127125,34.1258863 5.81046807,28.8357148 5.81046807,22.3098394 C5.81046807,15.7838948 11.0109443,10.4937924 17.426173,10.4937924 C23.8414017,10.4937924 29.0439181,15.7839639 29.0439181,22.3098394 C29.0439181,28.8357839 23.8416057,34.1258863 17.426173,34.1258863 Z"></path>
        </g>
    </g>
</svg>