<?xml version="1.0" encoding="UTF-8"?>
<svg width="38px" height="34px" viewBox="0 0 38 34" version="1.1" xmlns="http://www.w3.org/2000/svg" xmlns:xlink="http://www.w3.org/1999/xlink">
    <title>icon/yield</title>
    <g id="---•-Symbols" stroke="none" stroke-width="1" fill="none" fill-rule="evenodd">
        <g id="icon/yield/large-grey" transform="translate(0.000000, -2.000000)" fill="#A2AAAD">
            <path d="M33.9445012,13.3149652 C34.2762807,13.638071 34.5452411,14.2833289 34.5452411,14.7421613 L34.5452411,17.3017738 C34.5452411,18.2396783 33.7767081,19 32.8182449,19 L32.8179921,21.6078771 L35.3836551,20.0923641 C36.2015888,19.6092183 37.2626002,19.8701571 37.7534903,20.6751871 C38.2443803,21.4802172 37.979259,22.5244901 37.1613252,23.0076359 L32.8179921,25.573202 L32.8179921,34.2957954 C32.8179921,35.2370016 32.0500039,36 31.0892375,36 L6.91076247,36 C5.95599768,36 5.18200789,35.2375277 5.18200789,34.2957954 L5.18200789,25.573202 L0.838674768,23.0076359 C0.0207409906,22.5244901 -0.244380321,21.4802172 0.246509744,20.6751871 C0.73739981,19.8701571 1.79841117,19.6092183 2.61634495,20.0923641 L5.18200789,21.6078771 L5.18200789,19 C4.22796141,19 3.45475887,18.2364785 3.45475887,17.3017738 L3.45475887,14.7421613 C3.45475887,14.2770484 3.73068018,13.6329825 4.08635732,13.3248789 C4.08635732,13.3248789 6.91921641,10.1808242 14.2468881,9.13428799 C13.9711604,8.51108367 13.818253,7.82311685 13.818253,7.1 C13.818253,4.28334778 16.1382001,2 19,2 C21.8617999,2 24.181747,4.28334778 24.181747,7.1 C24.181747,7.80531721 24.0362746,8.47719354 23.7732494,9.08814989 C31.2716574,10.0833134 33.9445012,13.3149652 33.9445012,13.3149652 Z M8.64311953,23.6523232 L11.25259,25.193713 C12.0705238,25.6768588 12.3356451,26.7211317 11.844755,27.5261617 C11.353865,28.3311918 10.2928536,28.5921306 9.47491984,28.1089848 L8.64874307,27.6209699 L8.65579831,32.6 L29.3634941,32.5853699 L29.3634941,27.6137416 L28.5250802,28.1089848 C27.7071464,28.5921306 26.646135,28.3311918 26.155245,27.5261617 C25.6643549,26.7211317 25.9294762,25.6768588 26.74741,25.193713 L29.3634941,23.6484166 L29.3634941,19 L8.63652723,19 L8.64311953,23.6523232 Z M6.93081589,15.6 L31.0907431,15.6 C31.0907431,15.6 31.1282877,15.3439133 30.9930053,15.2342846 C30.5408476,14.8678699 29.9367605,14.4805211 29.1641004,14.103218 C26.7603458,12.9294237 23.4856826,12.2 19.1868094,12.2 C14.8762825,12.2 11.5221852,12.9363069 8.99629266,14.1282641 C8.17278639,14.516873 7.51699335,14.9187374 7.01575092,15.3022283 C6.77174406,15.4889132 6.93081589,15.6 6.93081589,15.6 Z M19,8.8 C19.9539333,8.8 20.727249,8.03888407 20.727249,7.1 C20.727249,6.16111593 19.9539333,5.4 19,5.4 C18.0460667,5.4 17.272751,6.16111593 17.272751,7.1 C17.272751,8.03888407 18.0460667,8.8 19,8.8 Z" id="icon/yield"></path>
        </g>
    </g>
</svg>